<?xml version="1.0" encoding="utf-8"?>
<svg viewBox="0 300 1000 400" xmlns="http://www.w3.org/2000/svg">
  <path d="M274.617,540.892c16.775,11.579,35.489,10.142,60.276-4.054l22.17,19.186c-3.5,2.441-6.324,4.369-9.1,6.357-24.163,17.27-50.515,22.048-78.509,11.852-28.478-10.372-43.951-39.57-38.818-70.734,4.761-28.908,29.914-50.764,60.593-52.653,28.642-1.763,56.1,18.015,64.271,45.535,1.989,6.7.4,9.287-5.789,11.838-22.041,9.087-43.838,18.766-65.714,28.25C281.183,537.686,278.45,539.078,274.617,540.892Zm-9.762-24.508L320.4,493.571c-8.424-12.53-22.314-16.651-36.111-11.443C269.425,487.738,262.294,499.8,264.855,516.385Z" style="fill: rgb(255, 255, 255); fill-opacity: 1;"/>
  <path d="M889.823,512.45a64.353,64.353,0,1,1-128.7.511c-0.042-35.269,28.825-64.232,64.179-64.393A64.255,64.255,0,0,1,889.823,512.45Zm-32.078.438c-0.048-17.769-14.939-32.58-32.5-32.322-17.6.258-32.531,15.522-32.163,32.887a32.586,32.586,0,0,0,32.263,31.611A32.017,32.017,0,0,0,857.745,512.887Z" style="fill: rgb(255, 255, 255); fill-opacity: 1;"/>
  <path d="M505.328,513.082a64.3,64.3,0,0,1,63.922-64.526c35.174-.341,64.492,28.518,64.79,63.776,0.3,35.421-28.308,64.611-63.573,64.869C534.236,577.465,505.453,549.134,505.328,513.082Zm64.541,31.971c17.449-.092,31.966-14.366,32.187-31.647,0.224-17.532-14.6-32.648-32.2-32.841-17.652-.194-32.449,14.578-32.428,32.371A32.016,32.016,0,0,0,569.869,545.053Z" style="fill: rgb(255, 255, 255); fill-opacity: 1;"/>
  <path d="M492.192,573.878H458.438c0-12.363,0-24.211,0-36.059,0-9.429.056-18.859-.017-28.288-0.13-16.96-9.538-28.56-23.316-28.864-17.75-.392-31.429,11.716-31.81,28.906-0.4,17.907-.116,35.829-0.13,53.744,0,3.389,0,6.778,0,10.618H369.493V456.311h30.393l1.364,9.591c9.2-5.3,23.432-11.2,36.392-12.887,27.789-3.628,51.862,13.475,54.119,42.081C493.8,520.952,492.192,547.1,492.192,573.878Z" style="fill: rgb(255, 255, 255); fill-opacity: 1;"/>
  <path d="M150.943,546.195h75v30.22H116.176V420.459h34.768V546.195Z" style="fill: rgb(255, 255, 255); fill-opacity: 1;"/>
  <path d="M 628.3809814453125 456.2300109863281 L 666.5960083007812 456.2300109863281 L 697.7349853515625 532.1900024414062 L 728.4019775390625 456.2300109863281 L 764.2589721679688 456.2300109863281 L 717.0789794921875 576.5390014648438 L 681.6939697265625 576.5390014648438 L 628.3809814453125 456.2300109863281 Z" style="fill: rgb(255, 255, 255); fill-opacity: 1;"/>
</svg>
